<?xml version="1.0" encoding="UTF-8"?>
<svg xmlns="http://www.w3.org/2000/svg" xmlns:xlink="http://www.w3.org/1999/xlink" version="1.1" viewBox="0 0 1892.39 763.85">
  <!-- Generator: Adobe Illustrator 29.8.2, SVG Export Plug-In . SVG Version: 2.1.1 Build 3)  -->
  <defs>
    <style>
      .st0 {
        fill: #0091c5;
      }

      .st1 {
        fill: #ffc52f;
      }

      .st2 {
        fill: url(#New_Gradient_Swatch_13);
      }

      .st3 {
        fill: url(#New_Gradient_Swatch_11);
      }

      .st4 {
        fill: url(#New_Gradient_Swatch_14);
      }

      .st5 {
        fill: url(#New_Gradient_Swatch_12);
      }

      .st6 {
        fill: url(#New_Gradient_Swatch_1);
      }
    </style>
    <linearGradient id="New_Gradient_Swatch_1" data-name="New Gradient Swatch 1" x1="1423.21" y1="545.15" x2="1423.21" y2="50.82" gradientUnits="userSpaceOnUse">
      <stop offset="0" stop-color="#0082be"/>
      <stop offset="1" stop-color="#28b8eb"/>
    </linearGradient>
    <linearGradient id="New_Gradient_Swatch_11" data-name="New Gradient Swatch 1" x1="1410.24" y1="545.15" x2="1410.24" y2="50.82" xlink:href="#New_Gradient_Swatch_1"/>
    <linearGradient id="New_Gradient_Swatch_12" data-name="New Gradient Swatch 1" x1="278.59" y1="546.74" x2="278.59" y2="434.51" xlink:href="#New_Gradient_Swatch_1"/>
    <linearGradient id="New_Gradient_Swatch_13" data-name="New Gradient Swatch 1" x1="532.46" y1="546.74" x2="532.46" y2="34.3" xlink:href="#New_Gradient_Swatch_1"/>
    <linearGradient id="New_Gradient_Swatch_14" data-name="New Gradient Swatch 1" x1="944.43" y1="546.7" x2="944.43" y2="34.3" xlink:href="#New_Gradient_Swatch_1"/>
  </defs>
  <g id="fiber_back">
    <path class="st1" d="M377.62,378.92l-.09.06c-14.99,10.68-29.34,21.47-43.29,32.48v23.05c17.22-13.95,34.96-27.5,53.7-40.84,10.65-7.38,21.21-14.45,31.73-21.23-2.84-4.77-5.92-9.97-9.19-15.5-10.9,7.02-21.84,14.33-32.86,21.97Z"/>
    <path class="st1" d="M720.17,220.57c-1.11.31-4.16,1.21-8.19,2.41l6.84,16.74c2.99-.89,5.2-1.54,6.13-1.8,18.26-5.03,52.63-13.74,74.13-19.15-2.32-5.64-4.62-11.26-6.91-16.83-21.72,5.47-54.35,13.76-72,18.62Z"/>
    <path class="st1" d="M573.39,272.45l-7.52,22.63c2.75-1.16,5.51-2.3,8.28-3.44,0,0,29.02-12.14,40.53-17.04l-6.85-16.65c-7.78,3.32-25.14,10.6-34.45,14.5Z"/>
    <path class="st1" d="M222.95,509.71v25.01c37.91-36.78,73.33-69.47,111.29-100.21v-23.05c-38.51,30.39-73.96,62.43-111.29,98.25Z"/>
  </g>
  <g id="mpb_blue">
    <g>
      <path class="st0" d="M1094.85,653.29c0,5.43,4.76,8.86,11.19,8.86s13.51-3.33,15.06-9.42v-6.42c-4.21-1.44-8.97-2.22-14.06-2.22-6.76,0-12.18,3.77-12.18,9.19Z"/>
      <path class="st0" d="M449.69,637.01h-22.26v21.71h22.26c7.53,0,12.85-4.54,12.85-10.86s-5.32-10.86-12.85-10.86Z"/>
      <path class="st0" d="M459.32,616.19c0-5.65-4.87-9.64-11.63-9.64h-20.27v19.16h20.27c6.76,0,11.63-3.99,11.63-9.53Z"/>
      <path class="st0" d="M621.94,623.61c-9.52,0-17.5,8.42-17.5,18.39s7.97,18.5,17.5,18.5,17.39-8.42,17.39-18.5-7.97-18.39-17.39-18.39Z"/>
      <path class="st0" d="M1245.38,623.61c-9.52,0-17.5,8.42-17.5,18.39s7.97,18.5,17.5,18.5,17.39-8.42,17.39-18.5-7.97-18.39-17.39-18.39Z"/>
      <path class="st0" d="M372.7,607.33h-17.72v25.03h17.72c9.41,0,15.95-4.76,15.95-12.52s-6.54-12.52-15.95-12.52Z"/>
      <path class="st0" d="M222.65,574.08v123.12h1411.6v-123.12H222.65ZM325.16,670.69h-13.73v-50.84l-25.14,46.41-25.03-46.41v50.84h-13.84v-76.1h13.84l25.03,46.41,25.14-46.41h13.73v76.1ZM374.25,645.1h-19.27v25.59h-13.84v-76.1h33.11c16.28,0,28.46,10.41,28.46,25.26s-12.18,25.26-28.46,25.26ZM452.45,670.69h-38.76v-76.1h37.32c13.18,0,22.48,7.98,22.48,19.05,0,7.75-3.99,13.18-10.74,16.84,8.75,4.21,13.96,11.19,13.96,19.5,0,12.19-10.08,20.72-24.25,20.72ZM556.25,659.39c7.42,0,14.18-3.43,18.94-8.86l9.75,9.09c-7.31,7.64-17.5,12.41-28.68,12.41-21.71,0-39.98-18.06-39.98-39.44s18.27-39.33,39.98-39.33c11.19,0,21.37,4.77,28.68,12.3l-9.86,9.19c-4.65-5.43-11.52-8.86-18.83-8.86-14.07,0-25.91,12.19-25.91,26.7s11.85,26.81,25.91,26.81ZM621.94,672.02c-16.61,0-30.68-13.74-30.68-30.02s14.07-29.91,30.68-29.91,30.68,13.63,30.68,29.91-14.07,30.02-30.68,30.02ZM750.54,670.69h-13.18v-34.23c0-7.53-4.54-12.85-11.07-12.85-7.42,0-12.51,4.99-12.51,11.96v35.11h-13.18v-34.23c0-7.53-4.54-12.85-11.18-12.85-7.31,0-12.51,4.99-12.51,11.96v35.11h-13.51v-57.27h13.51v7.75c2.88-5.54,8.75-9.09,15.95-9.09,8.09,0,14.73,4.1,18.27,10.86,2.77-6.65,9.97-10.86,18.49-10.86,11.96,0,20.93,9.19,20.93,22.15v36.45ZM851.35,670.69h-13.18v-34.23c0-7.53-4.54-12.85-11.07-12.85-7.42,0-12.51,4.99-12.51,11.96v35.11h-13.18v-34.23c0-7.53-4.54-12.85-11.18-12.85-7.31,0-12.51,4.99-12.51,11.96v35.11h-13.51v-57.27h13.51v7.75c2.88-5.54,8.75-9.09,15.95-9.09,8.09,0,14.73,4.1,18.27,10.86,2.77-6.65,9.97-10.86,18.49-10.86,11.96,0,20.93,9.19,20.93,22.15v36.45ZM917.38,670.69h-13.51v-7.64c-3.54,5.32-10.19,8.97-17.72,8.97-12.51,0-21.26-9.19-21.26-22.15v-36.45h13.07v33.78c0,7.75,4.98,13.29,12.07,13.29s12.96-4.76,13.84-10.86v-36.22h13.51v57.27ZM983.84,670.69h-13.07v-33.78c0-7.75-4.98-13.29-12.07-13.29s-12.96,4.76-13.84,10.86v36.22h-13.51v-57.27h13.51v7.64c3.54-5.32,10.19-8.97,17.72-8.97,12.51,0,21.26,9.19,21.26,22.15v36.45ZM1011.1,670.69h-13.51v-57.27h13.51v57.27ZM1004.46,604.78c-4.32,0-7.75-3.65-7.75-7.75s3.43-7.64,7.75-7.64,7.64,3.54,7.64,7.64-3.43,7.75-7.64,7.75ZM1052.75,672.02c-16.5,0-30.57-13.74-30.57-30.02s14.07-29.91,30.79-29.91c8.64,0,16.28,3.65,21.71,9.31l-9.08,7.98c-3.1-3.43-7.86-5.76-12.74-5.76-9.41,0-17.27,8.42-17.27,18.39s7.86,18.5,17.27,18.5c4.98,0,9.86-2.32,13.07-5.98l9.08,7.87c-5.54,5.87-13.18,9.64-22.26,9.64ZM1134.27,670.69h-13.18v-6.87c-4.21,5.32-11.41,8.2-18.05,8.2-12.18,0-21.38-7.2-21.38-18.28s10.52-19.05,23.37-19.05c5.2,0,10.85,1.11,16.06,3.1v-1.55c0-6.65-3.65-13.07-14.06-13.07-5.43,0-10.63,1.88-15.51,4.32l-4.65-9.41c8.09-3.99,15.61-5.98,22.81-5.98,15.17,0,24.59,9.64,24.59,24.15v34.45ZM1168.29,672.02c-9.52,0-16.17-6.87-16.17-16.51v-30.9h-8.31v-11.19h8.31v-15.73h13.18v15.73h12.96v11.19h-12.96v29.24c0,3.88,2.44,6.64,5.65,6.64,2.32,0,4.43-.89,5.65-2.1l3.88,9.08c-3.21,2.77-7.87,4.54-12.18,4.54ZM1203.63,670.69h-13.51v-57.27h13.51v57.27ZM1196.98,604.78c-4.32,0-7.75-3.65-7.75-7.75s3.43-7.64,7.75-7.64,7.64,3.54,7.64,7.64-3.43,7.75-7.64,7.75ZM1245.38,672.02c-16.61,0-30.68-13.74-30.68-30.02s14.06-29.91,30.68-29.91,30.68,13.63,30.68,29.91-14.07,30.02-30.68,30.02ZM1339.43,670.69h-13.07v-33.78c0-7.75-4.98-13.29-12.07-13.29s-12.96,4.76-13.84,10.86v36.22h-13.51v-57.27h13.51v7.64c3.55-5.32,10.19-8.97,17.72-8.97,12.51,0,21.26,9.19,21.26,22.15v36.45ZM1374.33,672.02c-8.75,0-18.16-3.1-25.03-8.64l6.09-9.42c5.54,3.99,11.96,6.65,19.16,6.65,5.43,0,9.19-2.33,9.19-5.87,0-4.43-4.98-5.87-11.52-7.64-12.4-3.21-20.27-6.76-20.38-16.95,0-10.75,8.86-18.06,21.6-18.06,7.87,0,15.73,2.77,21.93,6.87l-5.65,9.86c-5.43-3.43-11.29-5.21-16.28-5.21s-8.42,1.88-8.42,5.09c0,3.65,2.99,4.76,11.74,7.31,9.64,2.66,20.05,5.98,20.05,17.95,0,10.97-9.08,18.06-22.48,18.06ZM1452.54,670.69h-13.73v-76.1h13.73v76.1ZM1519.66,670.69h-13.07v-33.78c0-7.75-4.98-13.29-12.07-13.29s-12.96,4.76-13.84,10.86v36.22h-13.51v-57.27h13.51v7.64c3.55-5.32,10.19-8.97,17.72-8.97,12.51,0,21.26,9.19,21.26,22.15v36.45ZM1560.98,672.02c-16.5,0-30.56-13.74-30.56-30.02s14.06-29.91,30.79-29.91c8.64,0,16.28,3.65,21.7,9.31l-9.08,7.98c-3.1-3.43-7.87-5.76-12.74-5.76-9.41,0-17.28,8.42-17.28,18.39s7.87,18.5,17.28,18.5c4.98,0,9.86-2.32,13.07-5.98l9.08,7.87c-5.54,5.87-13.18,9.64-22.26,9.64ZM1601.2,672.02c-5.09,0-8.86-3.99-8.86-8.86,0-4.54,3.77-8.53,8.86-8.53,4.65,0,8.53,3.99,8.53,8.53,0,4.88-3.88,8.86-8.53,8.86Z"/>
    </g>
    <g>
      <path class="st6" d="M1633.62,394.26c6.09-80.49-43.02-112.63-78.32-126.6,9.78-8.55,21.96-22.25,32.16-38.76-37.26-13.8-72.54-24.68-109.03-33.65-7.69,15.54-23.53,26.4-43.07,26.4-26.85,0-64.59.03-101.75.03v-48.96c-26.8-2.17-55.5-3.61-87.01-4.42-11.38-.16-22.76-.19-34.16-.12v141.79l-.13,229.99c0,2.6,2.11,4.71,4.71,4.71h289.57c133.68.01,127.71-138.05,127.03-148.97-.03-.48-.02-.96.01-1.45ZM1458.8,443.21l-125.21.38v-122.96c45.16-.31,81.6-.47,125.21-.47,38.16,0,61.53,30.76,61.53,61.53,0,34.25-26.27,61.53-61.53,61.53Z"/>
      <path class="st3" d="M1246.87,150.31h.11c32.47.83,61.14,2.39,86.61,4.44v-29.17l101.75-.53c26.13,0,48.13,21.6,48.13,48.47,0,1.48-.07,2.94-.2,4.39,37.79,9.31,74.27,20.62,112.88,35.02,7.09-14.94,11.9-31.32,11.9-47.84h0c0-71.44-49.28-120.52-128.61-130.8h-265.07c-1.17.86-1.94,2.23-1.94,3.79v112.11c11.49-.08,22.97-.04,34.45.12Z"/>
    </g>
    <g>
      <path class="st5" d="M222.95,542.03c0,2.6,2.11,4.71,4.71,4.71h101.88c2.6,0,4.71-2.11,4.71-4.71v-107.53c-37.96,30.74-73.38,63.43-111.29,100.21v7.31Z"/>
      <path class="st2" d="M841.62,540.25l-122.79-300.53-6.84-16.74-76.02-186.04c-.51-1.26-1.54-2.2-2.77-2.64h-85.71c-1.34.48-2.42,1.55-2.88,2.96l-74.1,244.2L335.4,35.51c-.3-.48-.68-.88-1.12-1.22h-109.47c-1.13.86-1.86,2.2-1.86,3.73v471.68c37.33-35.82,72.78-67.86,111.29-98.25v-184.75s45.82,78.75,76.25,130.23c3.27,5.52,6.35,10.73,9.19,15.5,7.22,12.13,12.8,21.39,15.5,25.59,13.61,21.25,26.76,38.69,56,38.69,12.93,0,23.44-10.59,30.28-20.12,4.7-6.54,8.33-13.79,11.16-21.33l33.27-100.19,7.52-22.63,18.05-54.36,16.39,39.87,6.85,16.65,110.71,269.21c.72,1.77,2.44,2.93,4.36,2.93h107.51c3.34,0,5.62-3.39,4.36-6.49Z"/>
    </g>
    <path class="st4" d="M1162.87,169.26c-37.18,1.35-74.71,3.94-113.01,7.82.02.61.05,1.23.05,1.85,0,27.77-22.17,47.7-48.13,47.7h-73.36l-13.48-31.1-7.37-17-20.77-47.94,114.97-.56c18.06,0,36.66,10.52,44.39,29.34,38.72-3.97,76.69-6.63,114.29-8.03-9.25-46.18-40.1-79.75-68.79-97-30.43-18.3-63.54-19.93-71.72-20.04h-1.92s0,0,0,0c0,0-.01,0-.04,0h-289.31c-2.41.96-3.77,3.75-2.7,6.37,15.04,36.73,39.39,96.05,66.18,161.29,2.29,5.57,4.59,11.18,6.91,16.83,61.93,150.8,133.54,324.99,133.54,324.99.73,1.77,2.46,2.93,4.36,2.93h115.57c3.32,0,5.61-3.36,4.4-6.47l-85.47-215.02q21.19.01,46.57-.3s34.77.86,70.37-18.38c36.98-20,74.84-61.32,74.84-127.04,0-3.47-.14-6.87-.37-10.23Z"/>
  </g>
  <g id="fiber_top">
    <path class="st1" d="M1742.11,279.3c-33.1-17.61-102.35-42.55-121.26-49.24-.1-.04-.14-.14-.11-.24l.04-.1c1.39-3.48-.32-7.43-3.81-8.8-7.02-2.77-13.95-5.41-20.82-7.98-38.6-14.4-75.09-25.71-112.88-35.02-.47-.12-.95-.24-1.42-.35-33.61-8.08-79.12-17.25-148.26-22.81-25.47-2.05-54.14-3.61-86.61-4.44h-.11c-11.47-.16-22.95-.19-34.45-.12-17.27.11-34.58.49-51.96,1.14-37.6,1.4-75.56,4.07-114.29,8.03-44.95,4.61-90.94,10.97-138.59,19.16l7.37,17c46.36-7.88,91.13-14.01,134.91-18.45,38.29-3.89,75.83-6.48,113.01-7.82,16.57-.6,33.08-.95,49.55-1.06,11.4-.07,22.78-.04,34.16.12,31.51.81,60.21,2.25,87.01,4.42,53.19,4.3,98.88,11.47,144.02,22.33.27.07.54.14.81.2,36.5,8.97,71.78,19.84,109.03,33.65,7.56,2.8,15.19,5.71,22.93,8.76,3.45,1.36,7.36-.34,8.73-3.79.04-.09.14-.14.23-.11,10.19,3.61,35.62,12.73,61.96,23.13l18.59,7.51c15.28,6.33,29.7,12.76,40.33,18.42.09.05.2.01.25-.08l1.71-3.2c.05-.09.02-.2-.07-.25Z"/>
    <path class="st1" d="M1186.04,56.99l-.14,1.99-.13,2c-18.88-1.28-37.64-1.85-54.87-2h-20.09c-16.82.15-31.27.62-41.66,1.08l-.02,2.43c-.03,3.04-2.51,5.47-5.54,5.45-81.76-.37-152.39,7.59-221.85,24.95-64.48,16.12-129.23,40.52-209.95,79.12-161.08,77.04-217.77,168.59-289.53,284.51-17.95,28.98-36.39,58.76-57.56,90.18h-21.77c23.91-34.86,44.27-67.75,64.02-99.66,35.41-57.18,68.85-111.19,113.34-159.51,49.25-53.49,107.63-95.36,183.73-131.75,81.86-39.15,147.66-63.93,213.36-80.35,70.96-17.74,143.01-25.85,226.34-25.49,3.04.02,5.5,2.51,5.47,5.56v.55c24.23-1.05,70.14-2.22,116.85.94Z"/>
    <path class="st1" d="M426.63,546.7c51.57-23.95,106.78-44.04,167.72-61.07,63.54-17.75,134.1-32.28,215.72-44.42l.44-.07c.75-.15,1.48-.3,2.19-.45,3.74-.77,6.7-1.38,10.05-1.38h.64l.63-.09c21.01-3,41.06-4.99,61.47-6.94,42.27-2.94,83.36-2.94,125.59.01,77.49,5.81,153.13,21.93,224.94,47.94,3.55,1.29,7.44-.35,9.02-3.71,21.2,6.8,99.77,32.1,140.39,46.77l.68-1.88.68-1.89c-40.55-14.64-118.8-39.84-140.32-46.74l.05-.13c1.39-3.76-.52-7.95-4.29-9.31-73.37-26.58-150.65-43.07-229.85-49.01-43.15-3.01-85.11-3.01-128.26,0l-.22.02c-20.35,1.94-40.36,3.93-61.43,6.91-.26.04-.53.06-.79.06-4.69.11-8.55.91-12.62,1.74-.6.13-1.22.25-1.86.38-82.27,12.24-153.49,26.91-217.7,44.85-73.24,20.47-138.42,45.33-198.99,75.92-1.17.59-2.11,1.46-2.77,2.49h38.89Z"/>
  </g>
</svg>