<?xml version="1.0" encoding="UTF-8"?>
<svg id="Layer_1" data-name="Layer 1" xmlns="http://www.w3.org/2000/svg" xmlns:xlink="http://www.w3.org/1999/xlink" viewBox="0 0 1892.4 586.4">
  <defs>
    <style>
      .cls-1 {
        fill: url(#New_Gradient_Swatch_1-2);
      }

      .cls-2 {
        fill: url(#New_Gradient_Swatch_1-6);
      }

      .cls-3 {
        fill: url(#New_Gradient_Swatch_1-3);
      }

      .cls-4 {
        fill: url(#New_Gradient_Swatch_1-5);
      }

      .cls-5 {
        fill: url(#New_Gradient_Swatch_1-4);
      }

      .cls-6 {
        fill: url(#New_Gradient_Swatch_1-7);
      }

      .cls-7 {
        fill: #ffc52f;
      }

      .cls-8 {
        fill: url(#New_Gradient_Swatch_1);
      }
    </style>
    <linearGradient id="New_Gradient_Swatch_1" data-name="New Gradient Swatch 1" x1="1026" y1="64.1" x2="1026" y2="4.5" gradientUnits="userSpaceOnUse">
      <stop offset="0" stop-color="#0082be"/>
      <stop offset="1" stop-color="#28b8eb"/>
    </linearGradient>
    <linearGradient id="New_Gradient_Swatch_1-2" data-name="New Gradient Swatch 1" x1="1353.9" y1="570.2" x2="1353.9" y2="41.9" xlink:href="#New_Gradient_Swatch_1"/>
    <linearGradient id="New_Gradient_Swatch_1-3" data-name="New Gradient Swatch 1" x1="1430.2" y1="545.2" x2="1430.2" y2="50.8" xlink:href="#New_Gradient_Swatch_1"/>
    <linearGradient id="New_Gradient_Swatch_1-4" data-name="New Gradient Swatch 1" x1="1417.2" y1="545.2" x2="1417.2" y2="50.8" xlink:href="#New_Gradient_Swatch_1"/>
    <linearGradient id="New_Gradient_Swatch_1-5" data-name="New Gradient Swatch 1" x1="285.6" y1="546.7" x2="285.6" y2="434.5" xlink:href="#New_Gradient_Swatch_1"/>
    <linearGradient id="New_Gradient_Swatch_1-6" data-name="New Gradient Swatch 1" x1="539.5" y1="546.7" x2="539.5" y2="34.3" xlink:href="#New_Gradient_Swatch_1"/>
    <linearGradient id="New_Gradient_Swatch_1-7" data-name="New Gradient Swatch 1" x1="951.4" y1="546.7" x2="951.4" y2="34.3" xlink:href="#New_Gradient_Swatch_1"/>
  </defs>
  <path class="cls-8" d="M1025,34.3h1.9c-1.2,0-1.9,0-1.9,0Z"/>
  <path class="cls-1" d="M1342.8,33.4h-118.7c-1,0-2,.3-2.8.9h265.1c-10.2-1.3-21-2-32.1-2l-111.5,1.1Z"/>
  <g>
    <path class="cls-3" d="M1640.6,394.3c6.1-80.5-43-112.6-78.3-126.6,9.8-8.6,22-22.2,32.2-38.8-37.3-13.8-72.5-24.7-109-33.6-7.7,15.5-23.5,26.4-43.1,26.4s-64.6,0-101.8,0v-49c-26.8-2.2-55.5-3.6-87-4.4-11.4-.2-22.8-.2-34.2-.1v371.8c-.1,2.6,2,4.7,4.6,4.7h289.6c133.7,0,127.7-138.1,127-149,0-.5,0-1,0-1.4ZM1465.8,443.2l-125.2.4v-123c45.2-.3,81.6-.5,125.2-.5s61.5,30.8,61.5,61.5-26.3,61.5-61.5,61.5Z"/>
    <path class="cls-5" d="M1253.9,150.3h.1c32.5.8,61.1,2.4,86.6,4.4v-29.2l101.8-.5c26.1,0,48.1,21.6,48.1,48.5s0,2.9-.2,4.4c37.8,9.3,74.3,20.6,112.9,35,7.1-14.9,11.9-31.3,11.9-47.8h0c0-71.4-49.3-120.5-128.6-130.8h-265.1c-1.2.9-1.9,2.2-1.9,3.8v112.1c11.5,0,23,0,34.4.1Z"/>
  </g>
  <path class="cls-7" d="M213,526.1c-1.9,1.8-1.9,4.8,0,6.7l6,6.1c1.8,1.9,4.8,1.9,6.7,0,1.5-1.4,2.9-2.8,4.4-4.2v-25c-5.6,5.4-11.2,10.8-16.9,16.4Z"/>
  <path class="cls-7" d="M384.6,378.9h0c-15,10.7-29.3,21.5-43.3,32.5v23c17.2-13.9,35-27.5,53.7-40.8,10.6-7.4,21.2-14.4,31.7-21.2-2.8-4.8-5.9-10-9.2-15.5-10.9,7-21.8,14.3-32.9,22Z"/>
  <path class="cls-7" d="M727.2,220.6c-1.1.3-4.2,1.2-8.2,2.4l6.8,16.7c3-.9,5.2-1.5,6.1-1.8,18.3-5,52.6-13.7,74.1-19.1-2.3-5.6-4.6-11.3-6.9-16.8-21.7,5.5-54.4,13.8-72,18.6Z"/>
  <path class="cls-7" d="M580.4,272.4l-7.5,22.6c2.8-1.2,5.5-2.3,8.3-3.4,0,0,29-12.1,40.5-17l-6.8-16.6c-7.8,3.3-25.1,10.6-34.4,14.5Z"/>
  <path class="cls-7" d="M229.9,509.7v25c37.9-36.8,73.3-69.5,111.3-100.2v-23c-38.5,30.4-74,62.4-111.3,98.2Z"/>
  <g>
    <path class="cls-4" d="M229.9,542c0,2.6,2.1,4.7,4.7,4.7h101.9c2.6,0,4.7-2.1,4.7-4.7v-107.5c-38,30.7-73.4,63.4-111.3,100.2v7.3Z"/>
    <path class="cls-2" d="M848.6,540.3l-122.8-300.5-6.8-16.7-76-186c-.5-1.3-1.5-2.2-2.8-2.6h-85.7c-1.3.5-2.4,1.6-2.9,3l-74.1,244.2L342.4,35.5c-.3-.5-.7-.9-1.1-1.2h-109.5c-1.1.9-1.9,2.2-1.9,3.7v471.7c37.3-35.8,72.8-67.9,111.3-98.2v-184.8s45.8,78.7,76.2,130.2c3.3,5.5,6.4,10.7,9.2,15.5,7.2,12.1,12.8,21.4,15.5,25.6,13.6,21.2,26.8,38.7,56,38.7s23.4-10.6,30.3-20.1c4.7-6.5,8.3-13.8,11.2-21.3l33.3-100.2,7.5-22.6,18.1-54.4,16.4,39.9,6.8,16.6,110.7,269.2c.7,1.8,2.4,2.9,4.4,2.9h107.5c3.3,0,5.6-3.4,4.4-6.5Z"/>
  </g>
  <path class="cls-6" d="M1169.9,169.3c-37.2,1.3-74.7,3.9-113,7.8,0,.6,0,1.2,0,1.9,0,27.8-22.2,47.7-48.1,47.7h-73.4l-13.5-31.1-7.4-17-20.8-47.9,115-.6c18.1,0,36.7,10.5,44.4,29.3,38.7-4,76.7-6.6,114.3-8-9.2-46.2-40.1-79.8-68.8-97-30.4-18.3-63.5-19.9-71.7-20h-1.9s0,0,0,0c0,0,0,0,0,0h-289.3c-2.4,1-3.8,3.8-2.7,6.4,15,36.7,39.4,96,66.2,161.3,2.3,5.6,4.6,11.2,6.9,16.8,61.9,150.8,133.5,325,133.5,325,.7,1.8,2.5,2.9,4.4,2.9h115.6c3.3,0,5.6-3.4,4.4-6.5l-85.5-215q21.2,0,46.6-.3s34.8.9,70.4-18.4c37-20,74.8-61.3,74.8-127s-.1-6.9-.4-10.2Z"/>
  <path class="cls-7" d="M1749.1,279.3c-33.1-17.6-102.3-42.5-121.3-49.2-.1,0-.1-.1-.1-.2h0c1.4-3.6-.3-7.5-3.8-8.9-7-2.8-14-5.4-20.8-8-38.6-14.4-75.1-25.7-112.9-35-.5-.1-.9-.2-1.4-.4-33.6-8.1-79.1-17.3-148.3-22.8-25.5-2-54.1-3.6-86.6-4.4h-.1c-11.5-.2-23-.2-34.4-.1-17.3.1-34.6.5-52,1.1-37.6,1.4-75.6,4.1-114.3,8-45,4.6-90.9,11-138.6,19.2l7.4,17c46.4-7.9,91.1-14,134.9-18.4,38.3-3.9,75.8-6.5,113-7.8,16.6-.6,33.1-1,49.6-1.1,11.4,0,22.8,0,34.2.1,31.5.8,60.2,2.2,87,4.4,53.2,4.3,98.9,11.5,144,22.3.3,0,.5.1.8.2,36.5,9,71.8,19.8,109,33.6,7.6,2.8,15.2,5.7,22.9,8.8,3.5,1.4,7.4-.3,8.7-3.8,0,0,.1-.1.2-.1,10.2,3.6,35.6,12.7,62,23.1l18.6,7.5c15.3,6.3,29.7,12.8,40.3,18.4,0,0,.2,0,.2,0l1.7-3.2c0,0,0-.2,0-.3Z"/>
  <path class="cls-7" d="M1192.9,59v-2c-46.6-3.2-92.5-2-116.7-.9v-.5c0-3-2.4-5.5-5.5-5.6-83.3-.4-155.4,7.7-226.3,25.5-65.7,16.4-131.5,41.2-213.4,80.3-76.1,36.4-134.5,78.3-183.7,131.8-44.5,48.3-77.9,102.3-113.3,159.5-21.1,34.1-42.9,69.3-68.9,106.8-1.7,2.5-1.1,5.9,1.4,7.7l5.7,4c2.5,1.7,5.9,1.1,7.7-1.4,26.3-37.9,48.3-73.3,69.5-107.6,71.8-115.9,128.5-207.5,289.5-284.5,80.7-38.6,145.5-63,210-79.1,69.5-17.4,140.1-25.3,221.8-24.9,3,0,5.5-2.4,5.5-5.5v-2.4c10.4-.5,24.9-.9,41.7-1.1h20.1c17.2.2,36,.7,54.9,2v-2h.1,0Z"/>
  <path class="cls-7" d="M1393.1,521.4l.7-1.9c-40.5-14.6-118.8-39.8-140.3-46.7h0c1.4-3.9-.5-8.1-4.3-9.4-73.4-26.6-150.7-43.1-229.9-49-43.2-3-85.1-3-128.3,0h-.2c-20.3,2-40.4,3.9-61.4,6.9-.3,0-.5,0-.8,0-4.7.1-8.6.9-12.6,1.7-.6.1-1.2.3-1.9.4-82.3,12.2-153.5,26.9-217.7,44.9-73.2,20.5-138.4,45.3-199,75.9-3.6,1.8-5,6.2-3.1,9.7l1.6,3.2c1.8,3.5,6.2,4.9,9.7,3.1,59.5-30,123.6-54.5,195.7-74.6,63.5-17.8,134.1-32.3,215.7-44.4h.4c.7-.2,1.5-.4,2.2-.5,3.7-.8,6.7-1.4,10.1-1.4h1.3c21-3.1,41.1-5.1,61.5-7,42.3-2.9,83.4-2.9,125.6,0,77.5,5.8,153.1,21.9,224.9,47.9,3.5,1.3,7.4-.4,9-3.7,21.2,6.8,99.8,32.1,140.4,46.8l.7-1.9h0Z"/>
</svg>